<svg width="100" height="100" viewBox="0 0 100 100" fill="none" xmlns="http://www.w3.org/2000/svg">
<rect width="100" height="100" fill="white"/>
<path d="M79.3192 66.6081C79.3217 66.7942 79.1655 66.9135 79.1325 67.0899C79.0126 67.741 78.8176 68.3784 78.8151 69.0488C78.8143 69.3873 78.7019 69.7007 78.5243 69.9964C78.2648 70.4275 78.102 70.9038 77.8921 71.3607C77.9128 71.4283 78.0243 71.4332 78.0062 71.5347C77.9458 71.8707 77.9103 72.2237 77.674 72.4888C77.4533 72.7353 77.3029 73.015 77.2013 73.3123C77.1236 73.5403 76.9997 73.7466 76.9286 73.9755C76.8625 74.1866 76.7162 74.3429 76.5427 74.4791C76.3684 74.6153 76.2535 74.7885 76.1832 75.0004C76.0312 75.4541 75.7445 75.8224 75.3495 76.0995C75.1239 76.2575 74.9917 76.4323 74.9024 76.7079C74.7396 77.2115 74.4083 77.6483 74.0769 78.0673C72.8738 79.5878 71.8094 81.114 70.3716 82.4597C69.4213 83.3485 67.905 84.0157 67.1621 85.056C66.8448 85.5 66.3655 85.7828 65.9424 86.1164C65.3846 86.5564 64.8186 86.9891 64.1897 87.3348C64.1063 87.3807 64.0319 87.4298 63.9327 87.4492C63.5824 87.5193 63.2593 87.6514 62.98 87.8787C62.0611 88.6248 60.9893 89.1301 59.9465 89.6772C58.5343 90.3654 57.0849 90.7981 55.6462 91.4725C53.2044 92.6175 51.4517 92.9777 48.9 92.6055C48.2728 92.5136 47.677 92.7078 47.0795 92.8464C46.7672 92.9181 46.473 92.9455 46.1532 92.8698C45.4665 92.7062 44.7616 93.0583 44.1179 92.9914C43.2874 92.9052 42.8875 92.3267 42.1719 91.9528C41.591 91.6498 40.9001 91.6522 40.2498 91.5475C38.4657 91.2582 35.8024 89.8472 34.7546 88.3589C34.6662 88.2332 34.5191 88.1913 34.3687 88.1784C34.1878 88.1631 34.077 88.0882 34.0308 87.9012C34.0043 87.7957 33.9399 87.6812 33.792 87.6611C33.6507 87.6418 33.5548 87.558 33.4879 87.4347C33.4639 87.3904 33.4052 87.3267 33.3697 87.3307C32.859 87.3863 32.6078 86.9705 32.2921 86.7248C31.3063 85.9544 30.3717 85.1228 29.3991 84.3356C27.4919 82.7925 25.8235 80.4089 24.3791 78.4509C23.8808 77.7756 23.2016 77.0262 22.8933 76.2486C22.8256 76.077 22.933 75.6958 22.8049 75.3888C22.6545 75.0262 22.3339 74.6854 22.0868 74.3816C22.0868 74.3816 22.086 74.38 22.0852 74.3792C21.9579 74.2228 21.8596 74.0472 21.7108 73.9038C21.5489 73.7482 21.5274 73.5081 21.5175 73.3147C21.4977 72.8909 21.2828 72.5532 21.1002 72.2003C20.9779 71.9634 20.8432 71.7466 20.8192 71.4654C20.7911 71.1399 20.5664 70.8885 20.3383 70.6459C20.3276 70.3212 20.3796 69.9771 20.1127 69.7104C20.1904 69.3679 19.8004 69.1729 19.826 68.8296C19.8351 68.6999 19.6409 68.5686 19.5979 68.4211C19.5004 68.094 19.4153 67.7596 19.3698 67.4219C19.2913 66.8442 19.2533 66.2624 19.188 65.683C19.1467 65.3156 19.0707 64.9522 19.0376 64.5839C18.9773 63.9143 18.9963 63.2398 19.0467 62.5734C19.0806 62.1214 19.0963 61.671 19.098 61.2197C19.098 61.1029 19.1492 61.0118 19.1988 60.9224C19.3665 60.6258 19.3789 60.3865 19.3665 60.0457C19.307 58.4526 19.1161 56.7556 19.2161 55.1497C19.2517 54.5719 19.3946 54.0062 19.5541 53.4486C20.2697 50.9418 21.4233 48.7984 22.6587 46.547C22.8471 46.2037 23.0925 45.8895 23.3197 45.5663C23.5602 45.2255 23.7841 44.8709 24.0568 44.5559C24.3791 44.1828 24.7551 43.8564 25.0402 43.4487C25.4451 42.8701 25.9054 42.3303 26.3268 41.7622C26.5978 41.3971 26.9862 41.1127 27.3308 40.8017C28.0307 40.1699 28.2927 39.2787 29.0091 38.7356C29.4388 38.4101 29.9478 38.1989 30.4048 37.9097C30.7857 37.6679 31.1278 37.3722 31.4683 37.0773C32.6119 36.0878 33.8382 35.2336 34.9877 34.2924C35.4934 33.8783 36.1156 33.7018 36.7172 33.4963C37.8989 33.0942 39.083 32.7026 40.1862 32.1144C40.5936 31.8968 41.0299 31.6889 41.4885 31.6865C41.7752 31.6849 41.9298 31.5938 42.0835 31.3948C42.4768 31.3722 42.8734 31.4069 43.2651 31.3182C43.4164 31.2844 43.5948 31.2715 43.7477 31.4327C43.8601 31.2933 43.9543 31.178 44.0427 31.0685C44.7682 31.0862 45.4144 30.8348 46.0945 30.6809C46.0672 30.5455 45.9226 30.5262 45.8243 30.4979C45.421 30.3835 45.1095 30.137 44.8418 29.8445C44.3171 29.2723 43.8089 28.6849 43.2998 28.0991C43.0164 27.7727 42.8834 27.3578 42.6379 27.008C42.5264 26.8485 42.5115 26.6253 42.2958 26.531C42.2562 26.5141 42.2314 26.4464 42.2165 26.3973C42.0512 25.8501 41.6744 25.3884 41.5496 24.8235C41.4711 24.4682 41.2918 24.1531 41.0852 23.855C41.0282 23.772 40.9778 23.693 40.9935 23.5987C41.0621 23.1781 40.8481 22.8155 40.7324 22.4368C40.6886 22.2933 40.6465 22.1564 40.6531 22.0121C40.6803 21.4271 40.6308 20.8389 40.7349 20.2555C40.7588 20.1201 40.8167 20.0041 40.8563 19.88C40.9068 19.7204 40.9547 19.5762 40.8283 19.4038C41.0026 19.2233 41.0836 19.0121 40.8968 18.776C41.2125 18.3143 41.0282 17.8196 41.0894 17.2893C41.3753 17.0234 41.386 16.9815 41.4125 15.8292C41.6017 15.7446 41.6785 15.54 41.7504 15.3707C41.9339 14.9364 42.3074 14.6197 42.4776 14.1878C43.1238 12.5505 44.8839 11.2523 46.1102 10.0428C46.3986 9.75918 46.687 9.47474 47.0018 9.2193C47.4638 8.84541 48.1157 8.62462 48.6206 8.31197C49.3106 7.8849 50.0378 7.50457 50.8319 7.28217C51.8062 7.009 52.8259 6.99691 53.8316 7.03801C54.2555 7.05574 54.662 7.02915 55.0793 7.02995C55.3074 7.02995 56.48 6.94454 56.6147 7.06219C56.7494 7.17983 56.8601 7.27653 56.9873 7.38773H58.0459C58.1657 7.38773 58.5723 7.68506 58.7855 7.71568C59.0582 7.75356 59.3498 7.70118 59.6267 7.72777C60.4786 7.80835 61.2876 8.15001 62.0677 8.47071C62.2825 8.55935 62.4999 8.6488 62.6833 8.78901C62.8692 8.93083 63.013 9.11777 63.1692 9.29021C63.7072 9.88328 64.8062 10.1508 65.1714 10.8236C65.2623 10.9912 65.3747 11.1427 65.5111 11.2596C66.0573 11.731 66.2548 12.3651 66.4688 13.0106C66.596 13.3949 66.6101 13.7712 66.5969 14.1572C66.5812 14.6294 66.682 15.0758 66.8514 15.5126C66.8753 15.5746 66.9216 15.6399 66.9166 15.7011C66.8613 16.3296 67.186 16.9219 67.0968 17.5536C67.0704 17.7398 67.0952 17.9275 67.2042 18.0927C67.2431 18.1515 67.2645 18.2128 67.2604 18.2813C67.2282 18.8131 67.2588 19.3433 67.2001 19.8792C67.1232 20.581 67.1852 21.2982 67.191 22.0089C67.191 22.0435 67.2257 22.0782 67.2513 22.1281C67.2133 22.253 67.0985 22.3457 67.0737 22.5036C66.9943 23.0105 66.8307 23.5053 66.5911 23.9565C66.4341 24.2514 66.4341 24.5343 66.4366 24.8364C66.4366 24.9033 66.4366 24.9702 66.4366 25.0596C66.2366 25.2611 66.1225 25.4972 66.0812 25.8098C66.0523 26.0298 65.9292 26.3215 65.6433 26.4182C65.559 26.6172 65.6623 26.8284 65.5474 27.0161C65.4152 27.2313 65.2665 27.4126 65.0648 27.5842C64.6525 27.9347 64.1575 28.228 63.9509 28.7679C63.7105 28.8888 63.7055 29.2659 63.3667 29.2828C63.346 29.2836 63.3312 29.3255 63.3072 29.336C63.0626 29.4432 63.0857 29.755 62.8701 29.8815C62.6759 29.9959 62.442 30.0403 62.3222 30.2739C62.2346 30.4456 62.0999 30.5866 61.8661 30.6269C61.7338 30.6502 61.6016 30.7719 61.5058 30.8799C61.1571 31.2739 60.6885 31.4907 60.2167 31.672C59.8316 31.8203 59.454 32.008 59.0284 32.0612C59.116 32.253 59.2862 32.1941 59.4217 32.1933C59.6696 32.1933 59.901 32.2006 60.1175 32.3569C60.4233 32.5777 60.7943 32.506 61.1719 32.5189C61.3182 32.9282 61.8784 32.6083 62.0412 32.9854C62.2057 32.9951 62.3429 33.0032 62.4792 33.0104C62.8585 33.3964 63.3601 33.539 63.8633 33.6228C64.4922 33.7276 65.0632 33.9314 65.5788 34.2924C65.6119 34.3158 65.6424 34.3464 65.6796 34.3601C66.8522 34.8082 67.9207 35.4576 69.0428 36.0031C69.1536 36.0571 69.2585 36.116 69.3345 36.2102C70.6162 37.7864 72.1243 39.0893 73.2985 40.7823C74.4446 42.4334 75.4296 44.1844 76.4014 45.9362C77.0625 47.1288 77.2707 48.4664 77.7938 49.7081C78.6672 51.783 79.3423 53.9853 79.458 56.2294C79.4919 56.887 79.7051 57.5082 79.7654 58.152C79.8324 58.8636 80.0778 59.5606 79.9753 60.2866C79.8844 60.9304 79.8051 61.5775 79.8266 62.2262C79.8415 62.6959 79.7266 63.1512 79.7299 63.617C79.7307 63.8071 79.582 63.9473 79.558 64.1399C79.4911 64.6846 79.4399 65.2294 79.3878 65.7749C79.3614 66.0513 79.3159 66.3268 79.3192 66.6057V66.6081Z" fill="#05C7FD"/>
</svg>
